PathFileType	4	(X/Y/Z)	OpenSim_Sub08_EMGBaseline_Magnet.trc
DataRate	CameraRate	NumFrames	NumMarkers	Units	OrigDataRate	OrigDataStartFrame	OrigNumFrames
100	100	36	8	m	100	2496	6654
Frame#	Time	torso_imu_offset_imu	pelvis_imu_offset_imu	tibia_r_imu_offset_imu	femur_r_imu_offset_imu	tibia_l_imu_offset_imu	femur_l_imu_offset_imu	toes_r_imu_offset_imu	toes_l_imu_offset_imu
				X1	Y1	Z1	X2	Y2	Z2	X3	Y3	Z3	X4	Y4	Z4	X5	Y5	Z5	X6	Y6	Z6	X7	Y7	Z7	X8		Y8	Z8	

2496	24.95000000	-0.94304196	-0.15791506	0.04300330	-0.65042273	0.18474083	-0.65931632	-0.69509356	-0.42541844	-0.11206660	-0.85488982	-0.11989550	-0.03953143	-0.60031133	0.41402859	0.40296128	-0.64757738	0.25683519	0.46074311	-0.59574614	-0.23320709	-0.45581047	-0.74050570	-0.16982052	-0.41519531
2497	24.96000000	-0.94197060	-0.15090310	0.05125141	-0.65579380	0.18544303	-0.66144726	-0.70783238	-0.40437687	-0.10539821	-0.85819615	-0.11933309	-0.04703424	-0.59153205	0.41769845	0.40332842	-0.64342331	0.26240407	0.46116772	-0.58252333	-0.21421827	-0.48901524	-0.74769896	-0.16184037	-0.41822938
2498	24.97000000	-0.94138986	-0.14928485	0.05982322	-0.65804973	0.18993331	-0.66543889	-0.71808916	-0.37789389	-0.10431271	-0.85736575	-0.12079613	-0.05542992	-0.59109704	0.42671434	0.40433995	-0.64667033	0.27027058	0.46218539	-0.57675676	-0.19421279	-0.51285727	-0.75334532	-0.15827577	-0.41609929
2499	24.98000000	-0.94339947	-0.15209805	0.06114817	-0.65444737	0.18497384	-0.66802032	-0.73983334	-0.35595514	-0.10018505	-0.85395643	-0.12549016	-0.06042612	-0.58095562	0.43062785	0.40669498	-0.64345824	0.27130906	0.46270156	-0.56056966	-0.17068751	-0.53125898	-0.75943862	-0.15843311	-0.41678734
2500	24.99000000	-0.94243909	-0.14982832	0.06135599	-0.65355450	0.18526800	-0.66868471	-0.74781661	-0.32976761	-0.10266596	-0.85408717	-0.12834350	-0.06268789	-0.57496937	0.43677223	0.40986149	-0.63692031	0.27232423	0.46134167	-0.55102448	-0.14361689	-0.55188377	-0.76806458	-0.15424985	-0.41381194
2501	25	-0.94588773	-0.14981442	0.06656352	-0.64943821	0.18513510	-0.66379748	-0.75570297	-0.29939436	-0.11024762	-0.85536060	-0.13235256	-0.07270314	-0.57634626	0.44844753	0.40411833	-0.63466920	0.28224331	0.46538628	-0.54632052	-0.11763852	-0.56474689	-0.77504122	-0.15294879	-0.40343013
2502	25.01000000	-0.94863442	-0.14666532	0.05772581	-0.65305759	0.18237639	-0.66610207	-0.76989915	-0.28106618	-0.11010685	-0.85453629	-0.13664457	-0.07592323	-0.56768311	0.44531335	0.41273289	-0.63599761	0.28673014	0.46798553	-0.53646793	-0.09798125	-0.58099523	-0.77910850	-0.15345224	-0.40089597
2503	25.02000000	-0.94424745	-0.14776302	0.06166646	-0.65138111	0.18471794	-0.67277315	-0.77711023	-0.26242560	-0.11111017	-0.84681518	-0.13566693	-0.07658092	-0.56742491	0.45021585	0.41312375	-0.63287186	0.29192773	0.46259753	-0.53172472	-0.07701199	-0.58894961	-0.78543585	-0.14874496	-0.39327369
2504	25.03000000	-0.94139705	-0.14905836	0.06932811	-0.64704622	0.18600898	-0.66430785	-0.78019304	-0.24810399	-0.11517134	-0.84849526	-0.13672872	-0.08413078	-0.56251863	0.46224527	0.40787608	-0.62247383	0.29479248	0.47046607	-0.51533539	-0.05768001	-0.60601370	-0.79344060	-0.15397140	-0.38867214
2505	25.04000000	-0.94426903	-0.14539234	0.06654483	-0.64986586	0.19300231	-0.66499558	-0.78332761	-0.23352386	-0.11477865	-0.84948954	-0.13858392	-0.08495911	-0.55420291	0.46753133	0.41051768	-0.61759403	0.30362687	0.47977906	-0.50610697	-0.04257402	-0.61451949	-0.79735430	-0.15915951	-0.38369749
2506	25.05000000	-0.94905054	-0.14624469	0.06346053	-0.64494165	0.18996400	-0.67096483	-0.78477516	-0.21998233	-0.11602359	-0.84724501	-0.14753795	-0.08576159	-0.55267773	0.47121824	0.40836147	-0.61860245	0.30921231	0.46911729	-0.50484018	-0.03269552	-0.61643344	-0.80504972	-0.15705057	-0.37254076
2507	25.06000000	-0.94372713	-0.14546429	0.06719106	-0.64302514	0.19246392	-0.67447720	-0.78950500	-0.21614055	-0.11418408	-0.85021717	-0.15455761	-0.09550140	-0.55119196	0.48289447	0.40733625	-0.61828210	0.31389472	0.47192137	-0.49599193	-0.02902159	-0.62345191	-0.80556519	-0.16091111	-0.36634188
2508	25.07000000	-0.94335912	-0.14200173	0.06395287	-0.64284691	0.19471868	-0.66935277	-0.78880488	-0.21109152	-0.11016872	-0.84265701	-0.15431980	-0.09671533	-0.54216130	0.49474753	0.40847317	-0.61393389	0.32058640	0.47295039	-0.49060720	-0.03062391	-0.61650590	-0.81014089	-0.16616830	-0.34997838
2509	25.08000000	-0.94863915	-0.13920397	0.06511600	-0.64401521	0.19323499	-0.67011682	-0.79118919	-0.21019794	-0.10831099	-0.83990871	-0.16534639	-0.10225529	-0.53806458	0.50259769	0.40786002	-0.60987898	0.32403087	0.46821524	-0.48842853	-0.02512521	-0.62134516	-0.81449456	-0.17358218	-0.33717050
2510	25.09000000	-0.95081514	-0.13996700	0.06359852	-0.64059234	0.19493297	-0.66786487	-0.79723957	-0.20910549	-0.10610044	-0.84166848	-0.17348084	-0.10368877	-0.53425700	0.51316791	0.40651324	-0.61500427	0.33438291	0.47236394	-0.48835052	-0.02021869	-0.62738108	-0.81360870	-0.17812518	-0.32724000
2511	25.10000000	-0.94693984	-0.13881604	0.06154517	-0.64116383	0.19194093	-0.67183115	-0.79163533	-0.21012877	-0.10345968	-0.83991486	-0.17603648	-0.10748394	-0.51902204	0.52095578	0.40338482	-0.61039680	0.33962993	0.46971825	-0.49126767	-0.02228019	-0.62158500	-0.81281097	-0.18194517	-0.31302215
2512	25.11000000	-0.94741899	-0.14320371	0.06003865	-0.63991036	0.19456937	-0.67396299	-0.78721077	-0.22065921	-0.09666233	-0.83035426	-0.17848451	-0.11334815	-0.51375331	0.52841775	0.40140939	-0.60509750	0.34457027	0.46241423	-0.50091166	-0.02081192	-0.62199018	-0.81585876	-0.18725667	-0.30625289
2513	25.12000000	-0.94783715	-0.14778273	0.06029932	-0.64059102	0.19278916	-0.67861639	-0.78801893	-0.22699719	-0.09353765	-0.82781050	-0.18406109	-0.10885239	-0.50572466	0.54072141	0.39629940	-0.60779030	0.35043052	0.45819238	-0.50714703	-0.02822007	-0.61823224	-0.81986545	-0.19046808	-0.29611979
2514	25.13000000	-0.94523815	-0.14149849	0.05693754	-0.64637050	0.18729163	-0.67553083	-0.78634824	-0.24034856	-0.09349591	-0.83516680	-0.18846874	-0.10214974	-0.49028257	0.55017178	0.39635239	-0.60494883	0.35133922	0.45170748	-0.51132320	-0.02389044	-0.60566169	-0.81579822	-0.19860394	-0.27536170
2515	25.14000000	-0.94617106	-0.13937306	0.05482258	-0.63776089	0.18686604	-0.68113749	-0.78382223	-0.25196766	-0.08940584	-0.83492756	-0.19174290	-0.08770655	-0.48678619	0.55909336	0.39877822	-0.60642264	0.36009663	0.45617051	-0.51984190	-0.02309607	-0.60011974	-0.81489664	-0.20757710	-0.26174336
2516	25.15000000	-0.95279446	-0.13993457	0.05420010	-0.63294480	0.19049548	-0.68180740	-0.78120361	-0.25775651	-0.08982517	-0.82848348	-0.19825074	-0.07926081	-0.48102814	0.56935736	0.38968059	-0.60559120	0.36682010	0.45094558	-0.52928548	-0.04181463	-0.59290534	-0.81247348	-0.21056854	-0.24688471
2517	25.16000000	-0.94620075	-0.14477655	0.05509174	-0.63796837	0.18369532	-0.68254044	-0.78133588	-0.25645674	-0.08980313	-0.82822832	-0.20547050	-0.07305240	-0.47080963	0.58253426	0.38896796	-0.60701453	0.37242748	0.44894992	-0.54275161	-0.04888625	-0.57515462	-0.81089164	-0.21332058	-0.23276917
2518	25.17000000	-0.94471818	-0.14686973	0.05020058	-0.63727270	0.18026122	-0.68434051	-0.78692231	-0.25000054	-0.08895641	-0.82703594	-0.21295910	-0.05975339	-0.46102972	0.58771079	0.39157647	-0.60445753	0.38105933	0.44619931	-0.55638401	-0.04848930	-0.56181706	-0.80982523	-0.21775259	-0.21505457
2519	25.18000000	-0.95198816	-0.14367011	0.04920648	-0.63294629	0.18890588	-0.68334197	-0.78295283	-0.25146150	-0.08158836	-0.82369350	-0.21970274	-0.05478164	-0.45017644	0.60144724	0.38628020	-0.60321375	0.38603037	0.44104924	-0.56596117	-0.05697107	-0.55120057	-0.80475981	-0.21964775	-0.19659981
2520	25.19000000	-0.94870949	-0.14788760	0.04490965	-0.63180074	0.19224178	-0.68779109	-0.77453700	-0.26180939	-0.07509373	-0.82159294	-0.22781985	-0.04291132	-0.43408811	0.61531076	0.38287751	-0.59831481	0.38614643	0.43626268	-0.58019228	-0.06464761	-0.54159432	-0.81036034	-0.21978078	-0.18326131
2521	25.20000000	-0.94618616	-0.14548149	0.04394417	-0.62907909	0.19313909	-0.68826434	-0.77680584	-0.27995407	-0.07041274	-0.82193808	-0.23281206	-0.03597517	-0.42526868	0.62193482	0.37562393	-0.60155568	0.39025210	0.42950458	-0.58790293	-0.06959161	-0.52841088	-0.80900059	-0.22194923	-0.15630576
2522	25.21000000	-0.95020086	-0.14293794	0.04349936	-0.62805472	0.20451116	-0.68164162	-0.77575305	-0.29079865	-0.06053554	-0.81851493	-0.23775091	-0.04632061	-0.41369523	0.63487224	0.36920883	-0.61234881	0.39020799	0.43165411	-0.59554710	-0.06992741	-0.51101296	-0.80707663	-0.22819653	-0.13372514
2523	25.22000000	-0.94976831	-0.14566391	0.03896385	-0.62518914	0.21522257	-0.68146555	-0.77712187	-0.29514435	-0.05030922	-0.82163827	-0.24324013	-0.04100725	-0.39539999	0.64754191	0.37212394	-0.61338531	0.38525998	0.42742547	-0.60676665	-0.07300266	-0.49659363	-0.81099397	-0.21977435	-0.10585071
2524	25.23000000	-0.95330396	-0.14401990	0.03473229	-0.63100738	0.22143873	-0.67754288	-0.77553641	-0.30242514	-0.04069315	-0.81907522	-0.24755677	-0.03325468	-0.38080303	0.65773381	0.37394802	-0.61284358	0.38885217	0.42547942	-0.61560383	-0.07204895	-0.49203100	-0.80762617	-0.21787046	-0.07843349
2525	25.24000000	-0.95182683	-0.14727240	0.03418563	-0.63372489	0.22800432	-0.67312487	-0.76581821	-0.31977112	-0.03226551	-0.81939270	-0.24985974	-0.03618656	-0.36015384	0.67102431	0.37620190	-0.61084306	0.38627127	0.42650266	-0.62650087	-0.06728073	-0.47919995	-0.81072240	-0.21333731	-0.05990400
2526	25.25000000	-0.95110827	-0.14799871	0.02782580	-0.63457345	0.23009441	-0.66404082	-0.75956126	-0.32948388	-0.02639822	-0.81942267	-0.25090924	-0.03185220	-0.34086889	0.68452139	0.36440507	-0.61699780	0.38655440	0.42088008	-0.63501090	-0.07329231	-0.46510272	-0.80805010	-0.21590765	-0.01824628
2527	25.26000000	-0.95165178	-0.14968189	0.02308450	-0.63984533	0.23831742	-0.66347004	-0.75532700	-0.33836698	-0.02594836	-0.81879201	-0.25589577	-0.03145346	-0.32670007	0.69780071	0.34983603	-0.62395973	0.37487703	0.42186230	-0.63742645	-0.07167608	-0.45769034	-0.79795052	-0.23025885	0.02526644
2528	25.27000000	-0.94699364	-0.15316569	0.02101474	-0.63968493	0.24122144	-0.65864501	-0.75869065	-0.34402501	-0.02413915	-0.81553726	-0.25878123	-0.02951667	-0.30760671	0.71534091	0.32895573	-0.63249562	0.36304252	0.42302423	-0.64444016	-0.06999463	-0.44984129	-0.78841485	-0.23555761	0.07082338
2529	25.28000000	-0.95044966	-0.15669508	0.01495816	-0.64273193	0.24223831	-0.65572495	-0.75444867	-0.34731052	-0.02278250	-0.81087024	-0.26254710	-0.02970173	-0.28022845	0.73142369	0.30424568	-0.63609715	0.35886310	0.42323900	-0.65037389	-0.07075515	-0.43857850	-0.78007676	-0.24450762	0.11405221
2530	25.29000000	-0.95109955	-0.15715065	0.01082074	-0.64345592	0.24253126	-0.65961704	-0.75056428	-0.35799061	-0.01699253	-0.80704094	-0.27317250	-0.02988872	-0.26476614	0.75434495	0.27661926	-0.64120845	0.34881297	0.41789375	-0.65149977	-0.07198747	-0.43186315	-0.76188109	-0.25375959	0.16008332
2531	25.30000000	-0.95236936	-0.15562673	0.01137029	-0.64449316	0.24049898	-0.65644925	-0.74359161	-0.36561930	-0.01388854	-0.80642142	-0.27353901	-0.03318244	-0.24628048	0.77030179	0.25368917	-0.65197594	0.34010681	0.41416983	-0.65075978	-0.08707547	-0.42640809	-0.74523167	-0.25207480	0.21232554
